# xmcd CD database file
#
# Track frame offsets:
#	150
#	10015
#	21627
#	35090
#	47330
#	56430
#	66117
#	76315
#	88485
#	99805
#	111822
#	121042
#	132307
#	144145
#	156172
#
# Disc length: 2219 seconds
#
# Revision: 0
# Processed by: cddbd v1.4PL0 Copyright (c) Steve Scherf et al.
# Submitted via: CDex 1.50Beta7
#
DISCID=bb08a90f
DTITLE=Rosemary Clooney - Hits
DYEAR=1960
DGENRE=Jazz
TTITLE0=Too Marvelous For Words
TTITLE1=Give Me The Simple Life
TTITLE2=You Took Advantage Of Me
TTITLE3=I Get Along Without You Very Well
TTITLE4=Mack The Knife
TTITLE5=I Only Have Eyes For You
TTITLE6=Aren't You Glad You're You
TTITLE7=Bye Bye Blackbird
TTITLE8=By Myself
TTITLE9=April In Paris
TTITLE10=Everything's Coming Up Roses
TTITLE11=It Could Happen To You
TTITLE12=Magic Is The Moonlight
TTITLE13=Sway
TTITLE14=Shine On, Harvest Moon
EXTD=YEAR: 1960
EXTT0=
EXTT1=
EXTT2=
EXTT3=
EXTT4=
EXTT5=
EXTT6=
EXTT7=
EXTT8=
EXTT9=
EXTT10=
EXTT11=
EXTT12=
EXTT13=
EXTT14=
PLAYORDER=
